<svg width="18" height="28" viewBox="0 0 18 28" fill="none" xmlns="http://www.w3.org/2000/svg">
<path fill-rule="evenodd" clip-rule="evenodd" d="M9 27.2396C8.89734 27.2396 8.79468 27.1712 8.72623 27.1027C8.72623 27.1027 6.53612 24.3993 4.38023 20.943C1.47148 16.3233 0 12.5932 0 9.88979C0 4.96203 4.10646 0.924011 9.03422 0.924011C13.962 0.924011 18 4.92781 18 9.88979C18 15.7597 9.66157 26.5986 9.27674 27.0989L9.27376 27.1027C9.20532 27.2054 9.10266 27.2396 9 27.2396ZM17.2814 9.88979C17.2814 5.33846 13.5856 1.60842 9 1.60842C4.41445 1.60842 0.684411 5.33846 0.684411 9.88979C0.684411 15.1174 6.87687 22.9706 8.76753 25.3683C8.86949 25.4976 8.95893 25.611 9.03422 25.7073C10.5057 23.791 17.2814 14.9544 17.2814 9.88979ZM9.00015 5.47537C11.2929 5.47537 13.1408 7.32327 13.1408 9.61605C13.1408 11.9088 11.2929 13.7567 9.00015 13.7567C6.70738 13.7567 4.85947 11.9088 4.85947 9.61605C4.85947 7.32327 6.70738 5.47537 9.00015 5.47537ZM8.96593 6.15978C7.0838 6.15978 5.50966 7.6997 5.50966 9.61605C5.50966 11.5324 7.0838 13.1065 9.00015 13.1065C10.9165 13.1065 12.4222 11.4982 12.4222 9.61605C12.4222 7.73392 10.8481 6.15978 8.96593 6.15978Z" fill="white"/>
</svg>
