<svg width="24" height="24" viewBox="0 0 24 24" fill="none" xmlns="http://www.w3.org/2000/svg">
<g clip-path="url(#clip0_678_19)">
<path d="M8.85 21L12 17.7692L15.15 21M12 3V4.84615M9.3 12.2308V14.0769M12 10.3846V14.0769M14.7 8.53846V14.0769M21 5.4V17.2154C21 17.2881 20.986 17.3601 20.9589 17.4273C20.9318 17.4945 20.892 17.5556 20.8418 17.607C20.7917 17.6584 20.7322 17.6992 20.6666 17.7271C20.6011 17.7549 20.5309 17.7692 20.46 17.7692H3.54C3.39678 17.7692 3.25943 17.7109 3.15816 17.607C3.05689 17.5031 3 17.3623 3 17.2154V5.4C3 5.25311 3.05689 5.11224 3.15816 5.00837C3.25943 4.90451 3.39678 4.84615 3.54 4.84615H20.46C20.6032 4.84615 20.7406 4.90451 20.8418 5.00837C20.9431 5.11224 21 5.25311 21 5.4Z" stroke="white" stroke-width="0.8" stroke-linecap="round" stroke-linejoin="round"/>
</g>
<defs>
<clipPath id="clip0_678_19">
<rect width="24" height="24" fill="white"/>
</clipPath>
</defs>
</svg>
