<svg width="24" height="24" viewBox="0 0 24 24" fill="none" xmlns="http://www.w3.org/2000/svg">
<path d="M21.3656 7.96562C21.3656 7.96562 21.175 6.61875 20.5875 6.025C19.8437 5.24687 19.0094 5.24375 18.6281 5.19688C15.8906 5 11.7844 5 11.7844 5H11.775C11.775 5 7.66875 5 4.93125 5.19688C4.55 5.24375 3.71562 5.24687 2.97187 6.025C2.38437 6.61875 2.19375 7.96562 2.19375 7.96562C2.19375 7.96562 2 9.54688 2 11.1313V12.6156C2 14.1969 2.19688 15.7781 2.19688 15.7781C2.19688 15.7781 2.3875 17.125 2.975 17.7188C3.71875 18.4969 4.69688 18.4719 5.13125 18.5531C6.69375 18.7031 11.7812 18.75 11.7812 18.75C11.7812 18.75 15.8906 18.7438 18.6281 18.5469C19.0094 18.5 19.8437 18.4969 20.5875 17.7188C21.175 17.125 21.3656 15.7781 21.3656 15.7781C21.3656 15.7781 21.5625 14.1969 21.5625 12.6156V11.1313C21.5625 9.54688 21.3656 7.96562 21.3656 7.96562ZM10.2005 14.1825C10.0008 14.2859 9.7625 14.141 9.7625 13.9161V9.41046C9.7625 9.18519 10.0015 9.04029 10.2012 9.14446L14.5352 11.405C14.7505 11.5173 14.7501 11.8256 14.5344 11.9373L10.2005 14.1825Z" stroke="white" stroke-width="0.8" stroke-miterlimit="10"/>
</svg>
